<svg xmlns="http://www.w3.org/2000/svg" width="52" height="52" viewBox="0 0 52 52">
  <g id="Microsoft_.NET_logo" transform="translate(0.425 0.425)">
    <rect id="Rectangle_1918" data-name="Rectangle 1918" width="52" height="52" transform="translate(-0.425 -0.425)" fill="#512bd4"/>
    <path id="Path_19559" data-name="Path 19559" d="M70.967,271.519a1.287,1.287,0,0,1-.921-.361,1.22,1.22,0,0,1,0-1.769,1.342,1.342,0,0,1,1.851,0,1.2,1.2,0,0,1,0,1.769A1.3,1.3,0,0,1,70.967,271.519Z" transform="translate(-62.091 -239.108)" fill="#fff"/>
    <path id="Path_19560" data-name="Path 19560" d="M123.131,184.278h-2.348l-6.186-9.76a4.367,4.367,0,0,1-.388-.769h-.054a14.011,14.011,0,0,1,.072,1.824v8.7h-2.077V171h2.5l5.979,9.528q.379.593.488.815h.036a12.1,12.1,0,0,1-.09-1.787V171h2.068Z" transform="translate(-99.813 -152.071)" fill="#fff"/>
    <path id="Path_19561" data-name="Path 19561" d="M242.831,184.278h-7.27V171h6.981v1.87H237.71v3.759h4.452v1.861H237.71v3.926h5.12Z" transform="translate(-209.398 -152.071)" fill="#fff"/>
    <path id="Path_19562" data-name="Path 19562" d="M316.725,172.87H313v11.408h-2.149V172.87h-3.712V171h9.582Z" transform="translate(-272.96 -152.071)" fill="#fff"/>
  </g>
</svg>
